<?xml version="1.0" encoding="UTF-8" standalone="no"?>
<!-- Created with Inkscape (http://www.inkscape.org/) -->

<svg
   xmlns:dc="http://purl.org/dc/elements/1.1/"
   xmlns:cc="http://creativecommons.org/ns#"
   xmlns:rdf="http://www.w3.org/1999/02/22-rdf-syntax-ns#"
   xmlns:svg="http://www.w3.org/2000/svg"
   xmlns="http://www.w3.org/2000/svg"
   xmlns:sodipodi="http://sodipodi.sourceforge.net/DTD/sodipodi-0.dtd"
   xmlns:inkscape="http://www.inkscape.org/namespaces/inkscape"
   width="1305.901"
   height="1022.3969"
   id="svg2233"
   sodipodi:version="0.32"
   inkscape:version="0.48.2 r9819"
   sodipodi:docname="skippy-texg.svg"
   inkscape:output_extension="org.inkscape.output.svg.inkscape"
   inkscape:export-filename="/home/lionel/Images/Vectoriel/kangourou.png"
   inkscape:export-xdpi="71.941139"
   inkscape:export-ydpi="71.941139"
   version="1.1">
  <defs
     id="defs2235" />
  <sodipodi:namedview
     inkscape:document-units="mm"
     pagecolor="#ffffff"
     bordercolor="#666666"
     borderopacity="1.0"
     inkscape:pageopacity="1"
     inkscape:pageshadow="2"
     inkscape:zoom="0.37203918"
     inkscape:cx="554.43575"
     inkscape:cy="642.13349"
     inkscape:current-layer="layer1"
     id="namedview2237"
     inkscape:window-width="784"
     inkscape:window-height="751"
     inkscape:window-x="594"
     inkscape:window-y="47"
     showgrid="false"
     inkscape:window-maximized="0"
     units="mm"
     fit-margin-top="0"
     fit-margin-left="0"
     fit-margin-right="0"
     fit-margin-bottom="0" />
  <metadata
     id="metadata2239">
    <rdf:RDF>
      <cc:Work
         rdf:about="">
        <dc:format>image/svg+xml</dc:format>
        <dc:type
           rdf:resource="http://purl.org/dc/dcmitype/StillImage" />
        <dc:title></dc:title>
      </cc:Work>
    </rdf:RDF>
  </metadata>
  <g
     inkscape:label="Layer 1"
     inkscape:groupmode="layer"
     id="layer1"
     transform="translate(257.32689,88.081316)">
    <path
       style="fill:#000000"
       d="m -254.50166,686.02284 c 5.82723,-55.40262 14.36871,-105.39132 38.11885,-149.43097 15.15529,-28.10219 36.96219,-35.25919 79.29283,-56.2768 32.36836,-16.07125 65.007033,-26.52472 98.135473,-31.43062 l 49.6372,-7.35059 22.74747,-36.85394 c 12.51115,-20.26967 38.95341,-53.45279 58.76065,-73.74042 L 128.20393,294.05296 114.94215,268.05772 C 69.841613,179.65349 48.259273,78.231563 62.984853,23.895133 72.706703,-11.977876 107.16715,-49.84173 149.1214,-70.7484 c 59.83691,-29.81799 76.72744,-18.88167 23.8031,15.41213 -17.98887,11.656395 -40.4921,32.957443 -50.00715,47.3356634 C 78.868003,58.562443 118.1552,157.92624 221.75798,241.98386 c 123.23878,99.98913 164.3269,204.3913 117.75961,299.21942 -21.87695,44.54954 -62.07598,90.39759 -112.51824,128.33015 -61.49923,46.2473 -71.34615,64.98077 -50.10012,95.31376 13.7472,19.62688 17.91036,18.35642 37.66444,-11.49404 10.42068,-15.74671 22.14079,-25.86578 29.95831,-25.86578 21.39696,0 13.62575,24.05686 -20.43938,63.27286 -10.14804,11.68248 -18.47929,27.68692 -18.51382,35.56544 -0.0345,7.87846 -10.10873,26.96159 -22.38721,42.40687 -12.27841,15.44531 -24.28202,34.3597 -26.67454,42.0319 -4.99707,16.0241 -14.21518,23.4086 -29.39755,23.5501 -16.16483,0.1507 -19.02338,-16.1347 -8.19175,-46.66881 6.38348,-17.99475 8.39622,-37.72058 5.78508,-56.69525 -3.52184,-25.59211 -7.54841,-31.43696 -33.411477,-48.49834 -34.24688,-22.59207 -74.39508,-71.26706 -74.39508,-91.91434 0,-10.36132 -12.58287,-10.15103 -44.85365,-33.69665 -57.80621,-42.17681 -61.53909,-64.45414 -49.78672,-88.97465 4.75769,-9.9265 14.14315,-19.10601 20.8566,-20.3989 10.54142,-2.03009 11.64484,0.45691 8.08965,18.23297 -5.44628,27.23142 4.36053,43.8622 29.86974,50.6545 43.18435,11.49856 77.61815,-18.8738 61.50108,-54.247 -15.5553,-34.14003 -65.48047,-43.80472 -133.18587,-25.78255 -69.155463,18.40808 -90.883823,47.52022 -127.966753,171.45284 -13.86366,46.33298 -27.38908,84.27141 -30.05648,84.30761 -5.73476,0.0779 -12.68547,-41.22307 -5.86551,-106.06313 z"
       id="path2408"
       sodipodi:nodetypes="cssccccccssssssssssssssssssssssssssssc"
       inkscape:connector-curvature="0" />
    <text
       xml:space="preserve"
       style="font-size:68.21630859px;font-style:normal;font-weight:normal;line-height:125%;letter-spacing:0px;word-spacing:0px;fill:#000000;fill-opacity:1;stroke:none;font-family:Sans"
       x="760.2464"
       y="336.76691"
       id="text3054"
       sodipodi:linespacing="125%"
       transform="scale(0.46261281,2.1616349)"><tspan
         sodipodi:role="line"
         id="tspan3056"
         x="760.2464"
         y="336.76691"
         style="font-size:511.62231445px">KIPPY</tspan></text>
    <flowRoot
       xml:space="preserve"
       id="flowRoot3058"
       style="font-size:40px;font-style:normal;font-weight:normal;line-height:125%;letter-spacing:0px;word-spacing:0px;fill:#000000;fill-opacity:1;stroke:none;font-family:Sans"><flowRegion
         id="flowRegion3060"><rect
           id="rect3062"
           width="40.318333"
           height="61.821445"
           x="378.99234"
           y="287.15335" /></flowRegion><flowPara
         id="flowPara3064"></flowPara></flowRoot>  </g>
</svg>
